<mxfile host="app.diagrams.net" modified="2023-09-26T22:00:18.871Z" agent="Mozilla/5.0 (Windows NT 10.0; Win64; x64; rv:109.0) Gecko/20100101 Firefox/117.0" etag="iI70j4_WvJOgkhcl2sRr" version="21.8.2" type="github" pages="2">
  <diagram name="Registro de usuario" id="oWFC-D_3FWJ1l-kG7BxV">
    <mxGraphModel dx="1760" dy="960" grid="1" gridSize="10" guides="1" tooltips="1" connect="1" arrows="1" fold="1" page="1" pageScale="1" pageWidth="827" pageHeight="1169" math="0" shadow="0">
      <root>
        <mxCell id="0" />
        <mxCell id="1" parent="0" />
        <mxCell id="IlgSBVoF6NLLJ9J01Bu3-6" style="edgeStyle=orthogonalEdgeStyle;rounded=0;orthogonalLoop=1;jettySize=auto;html=1;exitX=0.5;exitY=0.5;exitDx=0;exitDy=0;exitPerimeter=0;entryX=0;entryY=0.5;entryDx=0;entryDy=0;" parent="1" source="IlgSBVoF6NLLJ9J01Bu3-1" target="IlgSBVoF6NLLJ9J01Bu3-5" edge="1">
          <mxGeometry relative="1" as="geometry" />
        </mxCell>
        <mxCell id="IlgSBVoF6NLLJ9J01Bu3-1" value="&lt;div&gt;User&lt;/div&gt;&lt;div&gt;&lt;br&gt;&lt;/div&gt;" style="shape=umlActor;verticalLabelPosition=bottom;verticalAlign=top;html=1;outlineConnect=0;" parent="1" vertex="1">
          <mxGeometry x="230" y="175" width="30" height="60" as="geometry" />
        </mxCell>
        <mxCell id="IlgSBVoF6NLLJ9J01Bu3-4" value="Caso 1" style="shape=umlFrame;whiteSpace=wrap;html=1;pointerEvents=0;" parent="1" vertex="1">
          <mxGeometry x="310" y="130" width="350" height="600" as="geometry" />
        </mxCell>
        <mxCell id="IlgSBVoF6NLLJ9J01Bu3-13" style="edgeStyle=orthogonalEdgeStyle;rounded=0;orthogonalLoop=1;jettySize=auto;html=1;entryX=0.5;entryY=0;entryDx=0;entryDy=0;" parent="1" source="IlgSBVoF6NLLJ9J01Bu3-5" target="IlgSBVoF6NLLJ9J01Bu3-8" edge="1">
          <mxGeometry relative="1" as="geometry" />
        </mxCell>
        <mxCell id="IlgSBVoF6NLLJ9J01Bu3-5" value="Registro de usuario" style="ellipse;whiteSpace=wrap;html=1;" parent="1" vertex="1">
          <mxGeometry x="340" y="170" width="140" height="70" as="geometry" />
        </mxCell>
        <mxCell id="IlgSBVoF6NLLJ9J01Bu3-14" style="edgeStyle=orthogonalEdgeStyle;rounded=0;orthogonalLoop=1;jettySize=auto;html=1;entryX=0.5;entryY=0;entryDx=0;entryDy=0;" parent="1" source="IlgSBVoF6NLLJ9J01Bu3-8" target="IlgSBVoF6NLLJ9J01Bu3-9" edge="1">
          <mxGeometry relative="1" as="geometry" />
        </mxCell>
        <mxCell id="IlgSBVoF6NLLJ9J01Bu3-8" value="Darle al botón de registro" style="ellipse;whiteSpace=wrap;html=1;" parent="1" vertex="1">
          <mxGeometry x="340" y="280" width="140" height="70" as="geometry" />
        </mxCell>
        <mxCell id="IlgSBVoF6NLLJ9J01Bu3-15" style="edgeStyle=orthogonalEdgeStyle;rounded=0;orthogonalLoop=1;jettySize=auto;html=1;entryX=0.5;entryY=0;entryDx=0;entryDy=0;" parent="1" source="IlgSBVoF6NLLJ9J01Bu3-9" target="IlgSBVoF6NLLJ9J01Bu3-10" edge="1">
          <mxGeometry relative="1" as="geometry" />
        </mxCell>
        <mxCell id="IlgSBVoF6NLLJ9J01Bu3-9" value="Ingresar datos de registro" style="ellipse;whiteSpace=wrap;html=1;" parent="1" vertex="1">
          <mxGeometry x="340" y="390" width="140" height="70" as="geometry" />
        </mxCell>
        <mxCell id="IlgSBVoF6NLLJ9J01Bu3-16" style="edgeStyle=orthogonalEdgeStyle;rounded=0;orthogonalLoop=1;jettySize=auto;html=1;entryX=0.5;entryY=0;entryDx=0;entryDy=0;" parent="1" source="IlgSBVoF6NLLJ9J01Bu3-10" target="IlgSBVoF6NLLJ9J01Bu3-12" edge="1">
          <mxGeometry relative="1" as="geometry" />
        </mxCell>
        <mxCell id="IlgSBVoF6NLLJ9J01Bu3-10" value="Enviar datos" style="ellipse;whiteSpace=wrap;html=1;" parent="1" vertex="1">
          <mxGeometry x="340" y="500" width="140" height="70" as="geometry" />
        </mxCell>
        <mxCell id="IlgSBVoF6NLLJ9J01Bu3-12" value="Enviar al inicio de sesión" style="ellipse;whiteSpace=wrap;html=1;" parent="1" vertex="1">
          <mxGeometry x="340" y="610" width="140" height="70" as="geometry" />
        </mxCell>
        <mxCell id="mVUYBnoUZ_Hh6vrkwXHk-4" style="edgeStyle=orthogonalEdgeStyle;rounded=0;orthogonalLoop=1;jettySize=auto;html=1;entryX=1;entryY=0.5;entryDx=0;entryDy=0;" edge="1" parent="1" source="mVUYBnoUZ_Hh6vrkwXHk-1" target="IlgSBVoF6NLLJ9J01Bu3-9">
          <mxGeometry relative="1" as="geometry" />
        </mxCell>
        <mxCell id="mVUYBnoUZ_Hh6vrkwXHk-1" value="Nombres, apellidos, &lt;br&gt;correo, contraseña" style="shape=dataStorage;whiteSpace=wrap;html=1;fixedSize=1;" vertex="1" parent="1">
          <mxGeometry x="530" y="385" width="100" height="80" as="geometry" />
        </mxCell>
        <mxCell id="mVUYBnoUZ_Hh6vrkwXHk-3" value="Extends" style="text;html=1;align=center;verticalAlign=middle;resizable=0;points=[];autosize=1;strokeColor=none;fillColor=none;" vertex="1" parent="1">
          <mxGeometry x="470" y="390" width="70" height="30" as="geometry" />
        </mxCell>
      </root>
    </mxGraphModel>
  </diagram>
  <diagram id="SVGC4E4vI4b8N6WXrkr7" name="Inicio de sesión">
    <mxGraphModel dx="587" dy="320" grid="1" gridSize="10" guides="1" tooltips="1" connect="1" arrows="1" fold="1" page="1" pageScale="1" pageWidth="827" pageHeight="1169" math="0" shadow="0">
      <root>
        <mxCell id="0" />
        <mxCell id="1" parent="0" />
        <mxCell id="fAzhjGEksoKRD4PgS0xt-16" style="edgeStyle=orthogonalEdgeStyle;rounded=0;orthogonalLoop=1;jettySize=auto;html=1;exitX=0.5;exitY=0.5;exitDx=0;exitDy=0;exitPerimeter=0;entryX=0;entryY=0.5;entryDx=0;entryDy=0;" edge="1" parent="1" source="fAzhjGEksoKRD4PgS0xt-17" target="fAzhjGEksoKRD4PgS0xt-20">
          <mxGeometry relative="1" as="geometry" />
        </mxCell>
        <mxCell id="fAzhjGEksoKRD4PgS0xt-17" value="&lt;div&gt;User&lt;/div&gt;&lt;div&gt;&lt;br&gt;&lt;/div&gt;" style="shape=umlActor;verticalLabelPosition=bottom;verticalAlign=top;html=1;outlineConnect=0;" vertex="1" parent="1">
          <mxGeometry x="240" y="185" width="30" height="60" as="geometry" />
        </mxCell>
        <mxCell id="fAzhjGEksoKRD4PgS0xt-18" value="Caso 1" style="shape=umlFrame;whiteSpace=wrap;html=1;pointerEvents=0;" vertex="1" parent="1">
          <mxGeometry x="320" y="140" width="350" height="600" as="geometry" />
        </mxCell>
        <mxCell id="fAzhjGEksoKRD4PgS0xt-19" style="edgeStyle=orthogonalEdgeStyle;rounded=0;orthogonalLoop=1;jettySize=auto;html=1;entryX=0.5;entryY=0;entryDx=0;entryDy=0;" edge="1" parent="1" source="fAzhjGEksoKRD4PgS0xt-20" target="fAzhjGEksoKRD4PgS0xt-22">
          <mxGeometry relative="1" as="geometry" />
        </mxCell>
        <mxCell id="fAzhjGEksoKRD4PgS0xt-20" value="Inicio de sesión" style="ellipse;whiteSpace=wrap;html=1;" vertex="1" parent="1">
          <mxGeometry x="350" y="180" width="140" height="70" as="geometry" />
        </mxCell>
        <mxCell id="fAzhjGEksoKRD4PgS0xt-21" style="edgeStyle=orthogonalEdgeStyle;rounded=0;orthogonalLoop=1;jettySize=auto;html=1;entryX=0.5;entryY=0;entryDx=0;entryDy=0;" edge="1" parent="1" source="fAzhjGEksoKRD4PgS0xt-22" target="fAzhjGEksoKRD4PgS0xt-24">
          <mxGeometry relative="1" as="geometry" />
        </mxCell>
        <mxCell id="fAzhjGEksoKRD4PgS0xt-22" value="Darle al botón de iniciar sesión" style="ellipse;whiteSpace=wrap;html=1;" vertex="1" parent="1">
          <mxGeometry x="350" y="290" width="140" height="70" as="geometry" />
        </mxCell>
        <mxCell id="fAzhjGEksoKRD4PgS0xt-23" style="edgeStyle=orthogonalEdgeStyle;rounded=0;orthogonalLoop=1;jettySize=auto;html=1;entryX=0.5;entryY=0;entryDx=0;entryDy=0;" edge="1" parent="1" source="fAzhjGEksoKRD4PgS0xt-24" target="fAzhjGEksoKRD4PgS0xt-26">
          <mxGeometry relative="1" as="geometry" />
        </mxCell>
        <mxCell id="fAzhjGEksoKRD4PgS0xt-24" value="Ingresar datos de inicio de sesión" style="ellipse;whiteSpace=wrap;html=1;" vertex="1" parent="1">
          <mxGeometry x="350" y="400" width="140" height="70" as="geometry" />
        </mxCell>
        <mxCell id="fAzhjGEksoKRD4PgS0xt-25" style="edgeStyle=orthogonalEdgeStyle;rounded=0;orthogonalLoop=1;jettySize=auto;html=1;entryX=0.5;entryY=0;entryDx=0;entryDy=0;" edge="1" parent="1" source="fAzhjGEksoKRD4PgS0xt-26" target="fAzhjGEksoKRD4PgS0xt-27">
          <mxGeometry relative="1" as="geometry" />
        </mxCell>
        <mxCell id="fAzhjGEksoKRD4PgS0xt-26" value="Enviar datos" style="ellipse;whiteSpace=wrap;html=1;" vertex="1" parent="1">
          <mxGeometry x="350" y="510" width="140" height="70" as="geometry" />
        </mxCell>
        <mxCell id="fAzhjGEksoKRD4PgS0xt-27" value="Sesión creada" style="ellipse;whiteSpace=wrap;html=1;" vertex="1" parent="1">
          <mxGeometry x="350" y="620" width="140" height="70" as="geometry" />
        </mxCell>
        <mxCell id="fAzhjGEksoKRD4PgS0xt-28" style="edgeStyle=orthogonalEdgeStyle;rounded=0;orthogonalLoop=1;jettySize=auto;html=1;entryX=1;entryY=0.5;entryDx=0;entryDy=0;" edge="1" parent="1" source="fAzhjGEksoKRD4PgS0xt-29" target="fAzhjGEksoKRD4PgS0xt-24">
          <mxGeometry relative="1" as="geometry" />
        </mxCell>
        <mxCell id="fAzhjGEksoKRD4PgS0xt-29" value="&lt;div&gt;Correo,&lt;/div&gt;&lt;div&gt;contraseña&lt;br&gt;&lt;/div&gt;" style="shape=dataStorage;whiteSpace=wrap;html=1;fixedSize=1;" vertex="1" parent="1">
          <mxGeometry x="540" y="395" width="100" height="80" as="geometry" />
        </mxCell>
        <mxCell id="fAzhjGEksoKRD4PgS0xt-30" value="Extends" style="text;html=1;align=center;verticalAlign=middle;resizable=0;points=[];autosize=1;strokeColor=none;fillColor=none;" vertex="1" parent="1">
          <mxGeometry x="480" y="400" width="70" height="30" as="geometry" />
        </mxCell>
      </root>
    </mxGraphModel>
  </diagram>
</mxfile>
